Coordinates
version=1
nRows=26
nColumns=24
inDegrees=yes

Units are S.I. units (second, meters, Newtons, ...)
Angles are in degrees.

endheader
time	pelvis_tilt	pelvis_list	pelvis_rotation	pelvis_tx	pelvis_ty	pelvis_tz	hip_flexion_r	hip_adduction_r	hip_rotation_r	knee_angle_r	ankle_angle_r	subtalar_angle_r	mtp_angle_r	hip_flexion_l	hip_adduction_l	hip_rotation_l	knee_angle_l	ankle_angle_l	subtalar_angle_l	mtp_angle_l	lumbar_extension	lumbar_bending	lumbar_rotation
      1.88000000	     -4.94241128	      2.02873996	     -2.01174092	      0.47212377	      1.32940883	     -0.66104581	     22.53702762	     -1.67270729	     -0.01381565	    -56.60526329	     -2.49496345	     12.73672851	     33.86821454	      8.34196147	      6.63605390	     -8.13778850	     -9.60056408	     -4.84782210	   -354.13211675	    378.88374206	     -8.87379457	     -4.17042854	      5.65245136
      1.88500000	     -4.83924015	      1.86283656	     -1.80159891	      0.47766412	      1.32986497	     -0.66144035	     22.92129317	     -1.61532189	     -0.34485275	    -56.00809129	     -2.06387709	     12.87861067	     33.70365981	      7.62968072	      6.52042740	     -8.02434820	     -9.18753843	     -4.66288058	   -353.69991449	    379.02261506	     -9.01759834	     -3.89986146	      5.21098009
      1.89000000	     -4.96547671	      1.76550825	     -1.75304762	      0.48290155	      1.32995470	     -0.66140306	     23.68967975	     -1.50282314	     -0.45774732	    -55.52035746	     -1.65140110	     12.98439463	     33.20256121	      7.21683845	      6.41219071	     -8.22462701	     -8.80854766	     -4.54745275	   -353.12342134	    379.43393226	     -8.92188629	     -3.74133951	      4.93487919
      1.89500000	     -5.00625707	      1.68481658	     -1.70906408	      0.48802416	      1.33004105	     -0.66130831	     24.32486947	     -1.40580276	     -0.53216911	    -54.93950350	     -1.16523639	     13.22940982	     32.80113598	      6.75585563	      6.32123517	     -8.30889379	     -8.52369673	     -4.36100004	   -352.65803551	    379.61395153	     -8.93076933	     -3.63288216	      4.81689172
      1.90000000	     -5.01701239	      1.61368902	     -1.62722142	      0.49340057	      1.33021071	     -0.66159062	     24.80706937	     -1.39859860	     -0.67916879	    -54.15498447	     -0.61504034	     13.36982108	     32.83581727	      6.16722731	      6.29635642	     -8.09646700	     -8.10418837	     -4.24700231	   -352.52449899	    379.49310474	     -8.91392463	     -3.48061582	      4.64555957
      1.90500000	     -4.97256902	      1.52270005	     -1.48211947	      0.49877992	      1.33033427	     -0.66182904	     25.23993238	     -1.38696287	     -0.90182452	    -53.42315665	     -0.06616447	     13.65555687	     32.11829395	      5.54850363	      6.25644752	     -7.77416353	     -7.74826953	     -4.00591943	   -352.41227681	    379.11944258	     -9.00340525	     -3.32997459	      4.35145261
      1.91000000	     -4.86383624	      1.41827443	     -1.38263939	      0.50415375	      1.33043250	     -0.66208514	     25.62252395	     -1.33342561	     -1.04102301	    -52.67077159	      0.03333465	     13.58166267	     32.02193838	      4.88268945	      6.20161621	     -7.58493740	     -7.42523845	     -3.79388425	   -352.40048513	    379.04361188	     -9.13908258	     -3.17630530	      4.13825103
      1.91500000	     -4.78056956	      1.32221993	     -1.26988437	      0.50962372	      1.33050137	     -0.66242159	     25.97543504	     -1.32084903	     -1.22346140	    -51.82441876	      0.25062627	     13.73087902	     31.90735488	      4.24575296	      6.16158486	     -7.27548330	     -7.14202392	     -3.47684856	   -352.35189212	    378.50768923	     -9.23007148	     -2.96361486	      3.88546054
      1.92000000	     -4.72755348	      1.26441529	     -1.16083934	      0.51486926	      1.33040382	     -0.66264410	     26.35039301	     -1.32389133	     -1.36799196	    -50.89415599	      0.66351590	     13.84194641	     31.88151269	      3.67990674	      6.13833381	     -7.05827169	     -6.86999548	     -3.29277773	   -352.25519736	    378.42698159	     -9.32885526	     -2.85368321	      3.70014331
      1.92500000	     -4.74513916	      1.12973480	     -0.98243328	      0.52016004	      1.33030144	     -0.66297153	     26.73292378	     -1.26503968	     -1.55893613	    -49.83231575	      0.99838091	     13.99433308	     31.73280132	      3.24623915	      6.02344627	     -6.76269334	     -6.72468612	     -3.08347597	   -352.13027124	    378.44811849	     -9.31867565	     -2.70252226	      3.52177835
      1.93000000	     -4.68758409	      1.04313372	     -0.86412019	      0.52540585	      1.33012438	     -0.66316615	     27.04573716	     -1.24072735	     -1.67619907	    -48.84545175	      1.44230959	     14.36331796	     30.85935632	      2.69638839	      5.97146858	     -6.47275487	     -6.51119879	     -2.76190603	   -352.15517310	    378.06469909	     -9.45252186	     -2.52214063	      3.12809892
      1.93500000	     -4.61250532	      0.98612712	     -0.74849153	      0.53066785	      1.32993044	     -0.66321648	     27.30335288	     -1.22721252	     -1.74021124	    -47.75055584	      1.68817982	     14.45626064	     30.68119998	      2.13814624	      5.93918188	     -6.24891007	     -6.28645784	     -2.54663962	   -352.13666256	    377.73778478	     -9.58162538	     -2.37342804	      2.83549433
      1.94000000	     -4.58462654	      0.90731944	     -0.64539867	      0.53601204	      1.32967285	     -0.66314119	     27.56220323	     -1.14576064	     -1.73036811	    -46.55823380	      1.78452968	     14.31389132	     30.70198793	      1.66493144	      5.84976921	     -6.15127748	     -6.15512523	     -2.19542396	   -351.74960933	    377.39079468	     -9.63722320	     -2.26841972	      2.62757386
      1.94500000	     -4.59638423	      0.81680260	     -0.49783452	      0.54113679	      1.32926860	     -0.66313489	     27.88824063	     -1.09213714	     -1.83408579	    -45.37173943	      1.92289282	     14.17384272	     30.40437869	      1.34103884	      5.73792713	     -6.05306651	     -6.19709492	     -1.87921324	   -351.48672533	    377.55020934	     -9.71413327	     -2.13386250	      2.33574256
      1.95000000	     -4.46941788	      0.68476131	     -0.33435455	      0.54664471	      1.32909476	     -0.66307719	     27.93569615	     -0.96950807	     -1.84980953	    -44.02415811	      1.96944811	     13.95177934	     30.19093519	      0.75613845	      5.58274286	     -5.91489304	     -6.06499637	     -1.63538887	   -351.25164217	    377.57324632	     -9.87014110	     -1.96415152	      2.00021999
      1.95500000	     -4.36641045	      0.60488076	     -0.26905584	      0.55200366	      1.32879853	     -0.66298729	     28.02252803	     -0.86375137	     -1.77927637	    -42.64823486	      2.02335210	     13.76678985	     29.96481336	      0.23869893	      5.48291476	     -5.88278594	     -6.00110163	     -1.36971702	   -350.99740008	    377.55443522	    -10.00013869	     -1.88023323	      1.89695833
      1.96000000	     -4.32830614	      0.53629344	     -0.14528446	      0.55730638	      1.32835217	     -0.66282811	     28.17108393	     -0.81912253	     -1.86728527	    -41.24728142	      1.95124202	     13.40679599	     29.84492415	     -0.15143113	      5.37367550	     -5.87703389	     -6.02104006	     -1.06242011	   -350.60709687	    377.60521096	    -10.05940114	     -1.80029318	      1.68629149
      1.96500000	     -4.20108430	      0.49746266	     -0.00563168	      0.56253244	      1.32792582	     -0.66275527	     28.21907387	     -0.81126813	     -1.85825172	    -39.87466156	      1.79392338	     13.19055278	     29.53996647	     -0.63467367	      5.31304487	     -5.73241485	     -6.05129237	     -0.85010271	   -350.39236011	    377.53533236	    -10.25872981	     -1.69846835	      1.35442126
      1.97000000	     -4.18198887	      0.45363038	      0.09237432	      0.56780899	      1.32740546	     -0.66257757	     28.35693330	     -0.75635732	     -1.74741375	    -38.42152736	      1.60212950	     12.85922752	     29.24911684	     -1.02918008	      5.23552096	     -5.63328238	     -6.02535204	     -0.59157849	   -350.14507970	    377.51726694	    -10.34609749	     -1.62499827	      1.07089666
      1.97500000	     -4.09566373	      0.42145919	      0.23599025	      0.57320225	      1.32694024	     -0.66242244	     28.35116584	     -0.73103919	     -1.71027503	    -36.89154159	      1.27381108	     12.14073191	     29.22501497	     -1.46404296	      5.16702119	     -5.50919874	     -6.07842930	     -0.32320567	   -349.79649561	    377.22257276	    -10.49678639	     -1.55520519	      0.71338535
      1.98000000	     -4.05966503	      0.40929658	      0.35103098	      0.57867004	      1.32632440	     -0.66230523	     28.40277475	     -0.72512978	     -1.61491511	    -35.40425168	      1.07840732	     11.76169598	     28.85905517	     -1.86863203	      5.12543047	     -5.33999683	     -6.13462401	      0.06527133	   -349.71071805	    377.24461910	    -10.53882797	     -1.54902361	      0.45359138
      1.98500000	     -4.00665449	      0.41054329	      0.43780665	      0.58406897	      1.32568656	     -0.66214008	     28.37926353	     -0.71052257	     -1.41790980	    -33.78434522	      0.85764976	     11.26322142	     28.55358711	     -2.26269244	      5.09709391	     -5.28710056	     -6.19878376	      0.38039597	   -349.56312010	    377.18669680	    -10.62960703	     -1.50609847	      0.25401003
      1.99000000	     -3.98224877	      0.42591108	      0.49732272	      0.58943288	      1.32500052	     -0.66189062	     28.37948363	     -0.67577296	     -1.12850499	    -32.12785508	      0.58662826	     10.60654535	     28.36298926	     -2.67043150	      5.08741369	     -5.18327934	     -6.18508872	      0.66536598	   -349.40543296	    376.97083374	    -10.68718157	     -1.52177400	      0.13395170
      1.99500000	     -3.89820482	      0.43176618	      0.57608908	      0.59473722	      1.32436161	     -0.66154754	     28.28076924	     -0.63187847	     -0.82746365	    -30.44294479	      0.23990032	      9.86763114	     28.06581997	     -3.13230146	      5.05764979	     -5.01339782	     -6.19392513	      0.98687969	   -349.29132420	    376.64481238	    -10.81165464	     -1.53432499	     -0.06442880
      2.00000000	     -3.85958129	      0.41548749	      0.63616031	      0.60010078	      1.32365236	     -0.66128048	     28.17885401	     -0.56295121	     -0.53474000	    -28.67437385	     -0.06687914	      9.05591332	     27.72261041	     -3.52090708	      5.01096995	     -4.92177101	     -6.26767134	      1.39638980	   -349.11342681	    376.31000366	    -10.86923314	     -1.49554216	     -0.22988160
      2.00500000	     -3.85760995	      0.42715434	      0.69647570	      0.60544913	      1.32286766	     -0.66109266	     28.09385582	     -0.53548012	     -0.19022149	    -26.85749136	     -0.48273743	      8.44440740	     27.51558318	     -3.85961407	      5.00089475	     -4.80761266	     -6.35041953	      1.77159331	   -349.08783069	    376.13666286	    -10.91657533	     -1.51165298	     -0.31494613
